<svg width="272" height="237" viewBox="0 0 272 237" fill="none" xmlns="http://www.w3.org/2000/svg">
<g clip-path="url(#clip0_504_278)">
<path d="M245.246 123.339C245.281 152.665 233.95 180.863 213.634 202.005C212.409 203.288 211.151 204.54 209.86 205.761C207.893 207.632 205.861 209.431 203.762 211.158C184.127 227.34 159.615 236.434 134.18 236.971C133.333 236.99 132.482 237 131.628 237C111.343 237 85.8298 226.161 62.6765 211.158C60.7609 209.916 58.8624 208.646 56.9809 207.347C56.1015 206.746 55.2263 206.136 54.3554 205.518C45.4254 199.21 36.9491 192.283 28.989 184.787C23.7772 179.894 18.8899 174.666 14.3583 169.137C-3.43206 147.185 -7.35598 127.405 18.0072 123.339C21.0101 122.859 23.9245 122.346 26.7504 121.8C30.8439 121.013 34.7614 120.163 38.503 119.25C43.543 118.025 48.2781 116.696 52.7084 115.264C54.1987 114.784 55.6548 114.295 57.0769 113.796C78.1003 106.409 92.1714 96.7764 101.749 86.3248C103.374 84.5557 104.872 82.7653 106.243 80.9535C108.34 78.1958 110.245 75.2969 111.945 72.2775C114.29 68.0822 116.26 63.6876 117.832 59.1451L117.918 58.8956C125.539 36.9049 123.221 16.5073 131.628 9.68039C167.567 -19.5052 212.31 22.0578 233.311 71.0714C234.369 73.5412 235.365 76.0258 236.298 78.5254C236.717 79.6419 237.121 80.7605 237.51 81.8812C238.533 84.802 239.462 87.7303 240.295 90.666C240.615 91.7857 240.92 92.9043 241.21 94.0219C241.52 95.228 241.818 96.4308 242.093 97.6337C244.136 106.441 245.246 115.126 245.246 123.339Z" fill="#F2F2F2"/>
<path d="M134.18 236.971C133.333 236.99 132.482 237 131.628 237C111.343 237 85.8299 226.161 62.6766 211.158C60.761 209.916 58.8624 208.646 56.981 207.347L58.6311 197.302L108.587 190.667L133.659 209.846L134.18 236.971Z" fill="#2F2E41"/>
<path d="M136.585 57.6001H129.466C129.246 57.6002 129.034 57.6879 128.878 57.8438C128.722 57.9998 128.635 58.2113 128.635 58.4318V65.5563C128.635 65.6653 128.656 65.7733 128.698 65.8739C128.74 65.9746 128.801 66.0661 128.879 66.143C128.956 66.22 129.048 66.281 129.148 66.3225C129.249 66.3639 129.357 66.3852 129.466 66.3848H136.585C136.805 66.3849 137.016 66.2978 137.172 66.1424C137.328 65.9871 137.416 65.7763 137.416 65.5563V58.4318C137.416 58.2114 137.328 58.0002 137.172 57.8444C137.016 57.6886 136.805 57.6007 136.585 57.6001Z" fill="white"/>
<path d="M136.585 69.7407H129.466C129.246 69.7408 129.034 69.8285 128.878 69.9845C128.722 70.1404 128.635 70.3519 128.635 70.5725V77.6969C128.635 77.806 128.656 77.9139 128.698 78.0146C128.74 78.1153 128.801 78.2067 128.879 78.2837C128.956 78.3607 129.048 78.4216 129.148 78.4631C129.249 78.5046 129.357 78.5258 129.466 78.5255H136.585C136.805 78.5256 137.016 78.4384 137.172 78.2831C137.328 78.1278 137.416 77.917 137.416 77.6969V70.5725C137.416 70.3521 137.328 70.1409 137.172 69.985C137.016 69.8292 136.805 69.7414 136.585 69.7407Z" fill="#E6E6E6"/>
<path d="M136.585 81.8813H129.466C129.246 81.8815 129.034 81.9691 128.878 82.1251C128.722 82.2811 128.635 82.4926 128.635 82.7131V89.8344C128.635 89.9437 128.656 90.0519 128.698 90.1529C128.739 90.2539 128.801 90.3457 128.878 90.423C128.955 90.5003 129.047 90.5615 129.148 90.6032C129.249 90.645 129.357 90.6663 129.466 90.6661H136.585C136.805 90.666 137.017 90.5784 137.173 90.4224C137.329 90.2665 137.416 90.055 137.416 89.8344V82.7131C137.416 82.4927 137.328 82.2815 137.172 82.1257C137.016 81.9698 136.805 81.882 136.585 81.8813Z" fill="#E6E6E6"/>
<path d="M137.404 94.7066C137.368 94.515 137.267 94.3418 137.117 94.2169C136.968 94.0919 136.78 94.023 136.585 94.022H129.466C129.246 94.0221 129.034 94.1098 128.878 94.2657C128.722 94.4217 128.635 94.6332 128.635 94.8538V101.975C128.635 102.084 128.656 102.193 128.698 102.294C128.739 102.395 128.801 102.486 128.878 102.564C128.955 102.641 129.047 102.702 129.148 102.744C129.249 102.786 129.357 102.807 129.466 102.807H136.585C136.805 102.807 137.017 102.719 137.173 102.563C137.329 102.407 137.416 102.196 137.416 101.975V94.8538C137.417 94.8044 137.413 94.7551 137.404 94.7066Z" fill="#E6E6E6"/>
<path d="M136.908 106.227C136.805 106.184 136.696 106.162 136.585 106.163H129.466C129.357 106.162 129.249 106.184 129.148 106.225C129.047 106.267 128.955 106.328 128.878 106.406C128.801 106.483 128.739 106.575 128.698 106.676C128.656 106.777 128.635 106.885 128.635 106.994V114.116C128.634 114.225 128.655 114.333 128.697 114.434C128.739 114.536 128.8 114.628 128.877 114.705C128.954 114.782 129.046 114.843 129.147 114.885C129.249 114.927 129.357 114.948 129.466 114.947H136.585C136.805 114.947 137.017 114.86 137.173 114.704C137.329 114.548 137.416 114.336 137.416 114.116V106.994C137.416 106.831 137.368 106.671 137.277 106.534C137.187 106.398 137.058 106.291 136.908 106.227Z" fill="#E6E6E6"/>
<path d="M151.539 57.6001H144.42C144.199 57.6002 143.988 57.6879 143.832 57.8438C143.676 57.9998 143.589 58.2113 143.589 58.4318V65.5563C143.589 65.6653 143.61 65.7733 143.652 65.8739C143.694 65.9746 143.755 66.0661 143.832 66.143C143.91 66.22 144.001 66.281 144.102 66.3225C144.203 66.3639 144.311 66.3852 144.42 66.3848H151.539C151.759 66.3849 151.97 66.2978 152.126 66.1424C152.281 65.9871 152.369 65.7763 152.37 65.5563V58.4318C152.369 58.2114 152.282 58.0002 152.126 57.8444C151.97 57.6886 151.759 57.6007 151.539 57.6001Z" fill="#E6E6E6"/>
<path d="M151.539 69.7407H144.42C144.199 69.7408 143.988 69.8285 143.832 69.9845C143.676 70.1404 143.589 70.3519 143.589 70.5725V77.6969C143.589 77.806 143.61 77.9139 143.652 78.0146C143.694 78.1153 143.755 78.2067 143.832 78.2837C143.91 78.3607 144.001 78.4216 144.102 78.4631C144.203 78.5046 144.311 78.5258 144.42 78.5255H151.539C151.759 78.5256 151.97 78.4384 152.126 78.2831C152.281 78.1278 152.369 77.917 152.37 77.6969V70.5725C152.369 70.3521 152.282 70.1409 152.126 69.985C151.97 69.8292 151.759 69.7414 151.539 69.7407Z" fill="#7F0000"/>
<path d="M151.539 81.8813H144.42C144.199 81.8815 143.988 81.9691 143.832 82.1251C143.676 82.2811 143.589 82.4926 143.589 82.7131V89.8344C143.588 89.9437 143.61 90.0519 143.651 90.1529C143.693 90.2539 143.754 90.3457 143.832 90.423C143.909 90.5003 144.001 90.5615 144.101 90.6032C144.202 90.645 144.311 90.6663 144.42 90.6661H151.539C151.759 90.666 151.971 90.5784 152.126 90.4224C152.282 90.2665 152.37 90.055 152.37 89.8344V82.7131C152.369 82.4927 152.282 82.2815 152.126 82.1257C151.97 81.9698 151.759 81.882 151.539 81.8813Z" fill="#7F0000"/>
<path d="M151.539 94.022H144.42C144.246 94.0221 144.076 94.0772 143.935 94.1794C143.793 94.2817 143.688 94.4258 143.633 94.5914C143.604 94.6757 143.589 94.7644 143.589 94.8538V101.975C143.588 102.084 143.61 102.193 143.651 102.294C143.693 102.395 143.754 102.486 143.832 102.564C143.909 102.641 144.001 102.702 144.101 102.744C144.202 102.786 144.311 102.807 144.42 102.807H151.539C151.759 102.807 151.971 102.719 152.126 102.563C152.282 102.407 152.37 102.196 152.37 101.975V94.8538C152.369 94.6334 152.282 94.4222 152.126 94.2663C151.97 94.1105 151.759 94.0226 151.539 94.022Z" fill="#7F0000"/>
<path d="M151.539 106.163H144.42C144.311 106.162 144.202 106.184 144.101 106.225C144.001 106.267 143.909 106.328 143.832 106.406C143.754 106.483 143.693 106.575 143.651 106.676C143.61 106.777 143.588 106.885 143.589 106.994V114.116C143.588 114.225 143.61 114.333 143.651 114.434C143.693 114.535 143.754 114.627 143.832 114.704C143.909 114.782 144.001 114.843 144.101 114.885C144.202 114.926 144.311 114.948 144.42 114.947H151.539C151.759 114.947 151.971 114.86 152.126 114.704C152.282 114.548 152.37 114.336 152.37 114.116V106.994C152.37 106.774 152.282 106.562 152.126 106.406C151.971 106.25 151.759 106.163 151.539 106.163Z" fill="#E6E6E6"/>
<path d="M166.492 57.6001H159.374C159.153 57.6002 158.942 57.6879 158.786 57.8438C158.63 57.9998 158.542 58.2113 158.542 58.4318V65.5563C158.542 65.6653 158.564 65.7733 158.606 65.8739C158.648 65.9746 158.709 66.0661 158.786 66.143C158.863 66.22 158.955 66.281 159.056 66.3225C159.157 66.3639 159.265 66.3852 159.374 66.3848H166.492C166.712 66.3849 166.923 66.2978 167.079 66.1424C167.235 65.9871 167.323 65.7763 167.324 65.5563V58.4318C167.323 58.2114 167.235 58.0002 167.08 57.8444C166.924 57.6886 166.713 57.6007 166.492 57.6001Z" fill="#7F0000"/>
<path d="M166.492 69.7407H159.374C159.153 69.7408 158.942 69.8285 158.786 69.9845C158.63 70.1404 158.542 70.3519 158.542 70.5725V77.6969C158.542 77.806 158.564 77.9139 158.606 78.0146C158.648 78.1153 158.709 78.2067 158.786 78.2837C158.863 78.3607 158.955 78.4216 159.056 78.4631C159.157 78.5046 159.265 78.5258 159.374 78.5255H166.492C166.712 78.5256 166.923 78.4384 167.079 78.2831C167.235 78.1278 167.323 77.917 167.324 77.6969V70.5725C167.323 70.3521 167.235 70.1409 167.08 69.985C166.924 69.8292 166.713 69.7414 166.492 69.7407Z" fill="#7F0000"/>
<path d="M166.492 81.8813H159.374C159.153 81.8815 158.942 81.9691 158.786 82.1251C158.63 82.2811 158.542 82.4926 158.542 82.7131V89.8344C158.542 89.9437 158.563 90.0519 158.605 90.1529C158.647 90.2539 158.708 90.3457 158.785 90.423C158.863 90.5003 158.954 90.5615 159.055 90.6032C159.156 90.645 159.264 90.6663 159.374 90.6661H166.492C166.713 90.666 166.924 90.5784 167.08 90.4224C167.236 90.2665 167.324 90.055 167.324 89.8344V82.7131C167.323 82.4927 167.235 82.2815 167.08 82.1257C166.924 81.9698 166.713 81.882 166.492 81.8813Z" fill="#E6E6E6"/>
<path d="M166.492 94.022H159.374C159.153 94.0221 158.942 94.1098 158.786 94.2657C158.63 94.4217 158.542 94.6332 158.542 94.8538V101.975C158.542 102.084 158.563 102.193 158.605 102.294C158.647 102.395 158.708 102.486 158.785 102.564C158.863 102.641 158.954 102.702 159.055 102.744C159.156 102.786 159.264 102.807 159.374 102.807H166.492C166.713 102.807 166.924 102.719 167.08 102.563C167.236 102.407 167.324 102.196 167.324 101.975V94.8538C167.323 94.6334 167.235 94.4222 167.08 94.2663C166.924 94.1105 166.713 94.0226 166.492 94.022Z" fill="#7F0000"/>
<path d="M166.492 106.163H159.374C159.264 106.162 159.156 106.184 159.055 106.225C158.954 106.267 158.863 106.328 158.785 106.406C158.708 106.483 158.647 106.575 158.605 106.676C158.563 106.777 158.542 106.885 158.542 106.994V114.116C158.542 114.225 158.563 114.333 158.605 114.434C158.647 114.535 158.708 114.627 158.785 114.704C158.863 114.782 158.954 114.843 159.055 114.885C159.156 114.926 159.264 114.948 159.374 114.947H166.492C166.713 114.947 166.924 114.86 167.08 114.704C167.236 114.548 167.324 114.336 167.324 114.116V106.994C167.324 106.774 167.236 106.562 167.08 106.406C166.924 106.25 166.713 106.163 166.492 106.163Z" fill="#7F0000"/>
<path d="M181.446 57.6001H174.327C174.107 57.6002 173.896 57.6879 173.74 57.8438C173.584 57.9998 173.496 58.2113 173.496 58.4318V65.5563C173.496 65.6653 173.518 65.7733 173.56 65.8739C173.601 65.9746 173.663 66.0661 173.74 66.143C173.817 66.22 173.909 66.281 174.01 66.3225C174.11 66.364 174.218 66.3852 174.327 66.3848H181.446C181.666 66.3849 181.877 66.2978 182.033 66.1424C182.189 65.9871 182.277 65.7763 182.278 65.5563V58.4318C182.277 58.2114 182.189 58.0002 182.033 57.8444C181.878 57.6886 181.666 57.6007 181.446 57.6001Z" fill="#7F0000"/>
<path d="M181.446 69.7407H174.327C174.107 69.7408 173.896 69.8285 173.74 69.9845C173.584 70.1404 173.496 70.3519 173.496 70.5725V77.6969C173.496 77.806 173.518 77.9139 173.56 78.0146C173.601 78.1153 173.663 78.2067 173.74 78.2837C173.817 78.3607 173.909 78.4216 174.01 78.4631C174.11 78.5046 174.218 78.5258 174.327 78.5255H181.446C181.666 78.5256 181.877 78.4384 182.033 78.2831C182.189 78.1278 182.277 77.917 182.278 77.6969V70.5725C182.277 70.3521 182.189 70.1409 182.033 69.985C181.878 69.8292 181.666 69.7414 181.446 69.7407Z" fill="white"/>
<path d="M181.446 81.8813H174.327C174.107 81.8815 173.896 81.9691 173.74 82.1251C173.584 82.2811 173.496 82.4926 173.496 82.7131V89.8344C173.496 89.9437 173.517 90.0519 173.559 90.1529C173.601 90.254 173.662 90.3457 173.739 90.423C173.816 90.5003 173.908 90.5615 174.009 90.6032C174.11 90.645 174.218 90.6663 174.327 90.6661H181.446C181.667 90.666 181.878 90.5784 182.034 90.4224C182.19 90.2665 182.278 90.055 182.278 89.8344V82.7131C182.277 82.4927 182.189 82.2815 182.033 82.1257C181.878 81.9698 181.666 81.882 181.446 81.8813Z" fill="white"/>
<path d="M181.446 94.022H174.327C174.107 94.0221 173.896 94.1098 173.74 94.2657C173.584 94.4217 173.496 94.6332 173.496 94.8538V101.975C173.496 102.084 173.517 102.193 173.559 102.294C173.601 102.395 173.662 102.486 173.739 102.564C173.816 102.641 173.908 102.702 174.009 102.744C174.11 102.786 174.218 102.807 174.327 102.807H181.446C181.667 102.807 181.878 102.719 182.034 102.563C182.19 102.407 182.278 102.196 182.278 101.975V94.8538C182.277 94.6334 182.189 94.4222 182.033 94.2663C181.878 94.1105 181.666 94.0226 181.446 94.022Z" fill="#E6E6E6"/>
<path d="M181.446 106.163H174.327C174.218 106.162 174.11 106.184 174.009 106.225C173.908 106.267 173.816 106.328 173.739 106.406C173.662 106.483 173.601 106.575 173.559 106.676C173.517 106.777 173.496 106.885 173.496 106.994V114.116C173.496 114.225 173.517 114.333 173.559 114.434C173.601 114.535 173.662 114.627 173.739 114.704C173.816 114.782 173.908 114.843 174.009 114.885C174.11 114.926 174.218 114.948 174.327 114.947H181.446C181.667 114.947 181.878 114.86 182.034 114.704C182.19 114.548 182.278 114.336 182.278 114.116V106.994C182.278 106.774 182.19 106.562 182.034 106.406C181.878 106.25 181.667 106.163 181.446 106.163Z" fill="#7F0000"/>
<path d="M196.4 57.6001H189.278C189.058 57.6009 188.847 57.6888 188.692 57.8447C188.537 58.0006 188.45 58.2118 188.45 58.4318V65.5563C188.45 65.776 188.537 65.9867 188.692 66.1421C188.848 66.2975 189.058 66.3848 189.278 66.3848H196.4C196.62 66.3849 196.831 66.2978 196.987 66.1424C197.143 65.9871 197.231 65.7763 197.231 65.5563V58.4318C197.231 58.2114 197.143 58.0002 196.987 57.8444C196.831 57.6886 196.62 57.6007 196.4 57.6001Z" fill="white"/>
<path d="M196.4 69.7407H189.278C189.058 69.7415 188.847 69.8295 188.692 69.9854C188.537 70.1413 188.45 70.3524 188.45 70.5725V77.6969C188.45 77.9167 188.537 78.1274 188.692 78.2828C188.848 78.4381 189.058 78.5255 189.278 78.5255H196.4C196.62 78.5256 196.831 78.4384 196.987 78.2831C197.143 78.1278 197.231 77.917 197.231 77.6969V70.5725C197.231 70.3521 197.143 70.1409 196.987 69.985C196.831 69.8292 196.62 69.7414 196.4 69.7407Z" fill="white"/>
<path d="M196.4 81.8813H189.278C189.058 81.8821 188.847 81.9701 188.692 82.126C188.537 82.2819 188.45 82.4931 188.45 82.7131V89.8344C188.449 89.9434 188.471 90.0515 188.512 90.1523C188.554 90.2531 188.615 90.3448 188.691 90.4221C188.768 90.4993 188.86 90.5606 188.96 90.6025C189.061 90.6444 189.169 90.666 189.278 90.6661H196.4C196.62 90.666 196.832 90.5784 196.988 90.4224C197.144 90.2665 197.231 90.055 197.231 89.8344V82.7131C197.231 82.4927 197.143 82.2815 196.987 82.1257C196.831 81.9698 196.62 81.882 196.4 81.8813Z" fill="white"/>
<path d="M196.4 94.022H189.278C189.058 94.0228 188.847 94.1107 188.692 94.2667C188.537 94.4226 188.45 94.6337 188.45 94.8538V101.975C188.449 102.084 188.471 102.192 188.512 102.293C188.554 102.394 188.615 102.485 188.691 102.563C188.768 102.64 188.86 102.701 188.96 102.743C189.061 102.785 189.169 102.807 189.278 102.807H196.4C196.62 102.807 196.832 102.719 196.988 102.563C197.144 102.407 197.231 102.196 197.231 101.975V94.8538C197.231 94.6334 197.143 94.4222 196.987 94.2663C196.831 94.1105 196.62 94.0226 196.4 94.022Z" fill="#7F0000"/>
<path d="M196.4 106.163H189.278C189.169 106.163 189.061 106.184 188.96 106.226C188.86 106.268 188.768 106.329 188.691 106.407C188.615 106.484 188.554 106.576 188.512 106.676C188.471 106.777 188.449 106.885 188.45 106.994V114.116C188.449 114.225 188.471 114.333 188.512 114.434C188.554 114.534 188.615 114.626 188.691 114.703C188.768 114.781 188.86 114.842 188.96 114.884C189.061 114.926 189.169 114.947 189.278 114.947H196.4C196.62 114.947 196.832 114.86 196.988 114.704C197.144 114.548 197.231 114.336 197.231 114.116V106.994C197.231 106.774 197.144 106.562 196.988 106.406C196.832 106.25 196.62 106.163 196.4 106.163Z" fill="#E6E6E6"/>
<path d="M211.354 57.6001H204.232C204.012 57.6009 203.801 57.6888 203.646 57.8447C203.491 58.0006 203.403 58.2118 203.403 58.4318V65.5563C203.403 65.776 203.491 65.9867 203.646 66.1421C203.801 66.2975 204.012 66.3848 204.232 66.3848H211.354C211.574 66.3849 211.785 66.2978 211.941 66.1424C212.096 65.9871 212.184 65.7763 212.185 65.5563V58.4318C212.184 58.2114 212.097 58.0002 211.941 57.8444C211.785 57.6886 211.574 57.6007 211.354 57.6001Z" fill="white"/>
<path d="M211.354 69.7407H204.232C204.012 69.7415 203.801 69.8295 203.646 69.9854C203.49 70.1413 203.403 70.3524 203.403 70.5725V77.6969C203.403 77.9167 203.491 78.1274 203.646 78.2828C203.801 78.4381 204.012 78.5255 204.232 78.5255H211.354C211.574 78.5256 211.785 78.4384 211.941 78.2831C212.096 78.1278 212.184 77.917 212.185 77.6969V70.5725C212.184 70.3521 212.097 70.1409 211.941 69.985C211.785 69.8292 211.574 69.7414 211.354 69.7407Z" fill="white"/>
<path d="M211.354 81.8813H204.232C204.012 81.8821 203.801 81.9701 203.646 82.126C203.49 82.2819 203.403 82.4931 203.403 82.7131V89.8344C203.403 89.9434 203.424 90.0515 203.466 90.1523C203.507 90.2531 203.568 90.3448 203.645 90.4221C203.722 90.4993 203.814 90.5606 203.914 90.6025C204.015 90.6444 204.123 90.666 204.232 90.6661H211.354C211.574 90.666 211.786 90.5784 211.941 90.4224C212.097 90.2664 212.185 90.0549 212.185 89.8344V82.7131C212.184 82.4927 212.097 82.2815 211.941 82.1257C211.785 81.9698 211.574 81.882 211.354 81.8813Z" fill="#7F0000"/>
<path d="M211.354 94.022H204.232C204.012 94.0228 203.801 94.1107 203.646 94.2667C203.491 94.4226 203.403 94.6337 203.403 94.8538V101.975C203.403 102.084 203.424 102.192 203.466 102.293C203.507 102.394 203.568 102.485 203.645 102.563C203.722 102.64 203.814 102.701 203.914 102.743C204.015 102.785 204.123 102.807 204.232 102.807H211.354C211.574 102.807 211.786 102.719 211.941 102.563C212.097 102.407 212.185 102.196 212.185 101.975V94.8538C212.184 94.6334 212.097 94.4222 211.941 94.2663C211.785 94.1105 211.574 94.0226 211.354 94.022Z" fill="#E6E6E6"/>
<path d="M211.354 106.163H204.232C204.123 106.163 204.015 106.184 203.914 106.226C203.814 106.268 203.722 106.329 203.645 106.407C203.568 106.484 203.507 106.576 203.466 106.676C203.424 106.777 203.403 106.885 203.403 106.994V114.116C203.403 114.225 203.424 114.333 203.466 114.434C203.507 114.534 203.568 114.626 203.645 114.703C203.722 114.781 203.814 114.842 203.914 114.884C204.015 114.926 204.123 114.947 204.232 114.947H211.354C211.574 114.947 211.786 114.86 211.941 114.704C212.097 114.548 212.185 114.336 212.185 114.116V106.994C212.185 106.774 212.097 106.562 211.941 106.406C211.786 106.25 211.574 106.163 211.354 106.163Z" fill="white"/>
<path d="M226.307 57.6001H219.185C218.965 57.6009 218.755 57.6888 218.6 57.8447C218.444 58.0006 218.357 58.2118 218.357 58.4318V65.5563C218.357 65.776 218.444 65.9867 218.6 66.1421C218.755 66.2975 218.966 66.3848 219.185 66.3848H226.307C226.527 66.3849 226.738 66.2978 226.894 66.1424C227.05 65.9871 227.138 65.7763 227.139 65.5563V58.4318C227.138 58.2114 227.05 58.0002 226.895 57.8444C226.739 57.6886 226.528 57.6007 226.307 57.6001Z" fill="#7F0000"/>
<path d="M226.307 69.7407H219.185C218.965 69.7415 218.755 69.8295 218.599 69.9854C218.444 70.1413 218.357 70.3524 218.357 70.5725V77.6969C218.357 77.9167 218.444 78.1274 218.6 78.2828C218.755 78.4381 218.966 78.5255 219.185 78.5255H226.307C226.527 78.5256 226.738 78.4384 226.894 78.2831C227.05 78.1278 227.138 77.917 227.139 77.6969V70.5725C227.138 70.3521 227.05 70.1409 226.895 69.985C226.739 69.8292 226.528 69.7414 226.307 69.7407Z" fill="#7F0000"/>
<path d="M226.307 81.8813H219.185C218.965 81.8821 218.755 81.9701 218.599 82.126C218.444 82.2819 218.357 82.4931 218.357 82.7131V89.8344C218.357 89.9434 218.378 90.0515 218.42 90.1523C218.461 90.2531 218.522 90.3448 218.599 90.4221C218.676 90.4993 218.767 90.5606 218.868 90.6025C218.969 90.6444 219.076 90.666 219.185 90.6661H226.307C226.528 90.666 226.739 90.5784 226.895 90.4224C227.051 90.2664 227.139 90.0549 227.139 89.8344V82.7131C227.138 82.4927 227.05 82.2815 226.895 82.1257C226.739 81.9698 226.528 81.882 226.307 81.8813Z" fill="#E6E6E6"/>
<path d="M226.307 94.022H219.185C218.965 94.0228 218.755 94.1107 218.6 94.2667C218.444 94.4226 218.357 94.6337 218.357 94.8538V101.975C218.357 102.084 218.378 102.192 218.42 102.293C218.461 102.394 218.522 102.485 218.599 102.563C218.676 102.64 218.767 102.701 218.868 102.743C218.969 102.785 219.076 102.807 219.185 102.807H226.307C226.528 102.807 226.739 102.719 226.895 102.563C227.051 102.407 227.139 102.196 227.139 101.975V94.8538C227.138 94.6334 227.05 94.4222 226.895 94.2663C226.739 94.1105 226.528 94.0226 226.307 94.022Z" fill="white"/>
<path d="M226.307 106.163H219.185C219.076 106.163 218.969 106.184 218.868 106.226C218.767 106.268 218.676 106.329 218.599 106.407C218.522 106.484 218.461 106.576 218.42 106.676C218.378 106.777 218.357 106.885 218.357 106.994V114.116C218.357 114.225 218.378 114.333 218.42 114.434C218.461 114.534 218.522 114.626 218.599 114.703C218.676 114.781 218.767 114.842 218.868 114.884C218.969 114.926 219.076 114.947 219.185 114.947H226.307C226.528 114.947 226.739 114.86 226.895 114.704C227.051 114.548 227.139 114.336 227.139 114.116V106.994C227.139 106.774 227.051 106.562 226.895 106.406C226.739 106.25 226.528 106.163 226.307 106.163Z" fill="#7F0000"/>
<path d="M241.261 57.6001H234.139C233.919 57.6009 233.708 57.6888 233.553 57.8447C233.398 58.0006 233.311 58.2118 233.311 58.4318V65.5563C233.311 65.776 233.398 65.9867 233.554 66.1421C233.709 66.2975 233.92 66.3848 234.139 66.3848H241.261C241.481 66.3849 241.692 66.2978 241.848 66.1424C242.004 65.9871 242.092 65.7763 242.093 65.5563V58.4318C242.092 58.2114 242.004 58.0002 241.848 57.8444C241.693 57.6886 241.481 57.6007 241.261 57.6001Z" fill="#7F0000"/>
<path d="M241.261 69.7407H234.139C233.919 69.7415 233.708 69.8295 233.553 69.9854C233.398 70.1413 233.311 70.3524 233.311 70.5725V77.6969C233.311 77.9167 233.398 78.1274 233.554 78.2828C233.709 78.4381 233.92 78.5255 234.139 78.5255H241.261C241.481 78.5256 241.692 78.4384 241.848 78.2831C242.004 78.1278 242.092 77.917 242.093 77.6969V70.5725C242.092 70.3521 242.004 70.1409 241.848 69.985C241.693 69.8292 241.481 69.7414 241.261 69.7407Z" fill="#7F0000"/>
<path d="M241.261 81.8813H234.139C233.919 81.8821 233.708 81.9701 233.553 82.126C233.398 82.2819 233.311 82.4931 233.311 82.7131V89.8344C233.311 89.9434 233.332 90.0515 233.373 90.1523C233.415 90.2531 233.476 90.3448 233.553 90.4221C233.63 90.4993 233.721 90.5606 233.822 90.6025C233.922 90.6444 234.03 90.666 234.139 90.6661H241.261C241.482 90.666 241.693 90.5784 241.849 90.4224C242.005 90.2664 242.092 90.0549 242.093 89.8344V82.7131C242.092 82.4927 242.004 82.2815 241.848 82.1257C241.693 81.9698 241.481 81.882 241.261 81.8813Z" fill="#E6E6E6"/>
<path d="M241.261 94.022H234.139C233.919 94.0228 233.708 94.1107 233.553 94.2667C233.398 94.4226 233.311 94.6337 233.311 94.8538V101.975C233.311 102.084 233.332 102.192 233.373 102.293C233.415 102.394 233.476 102.485 233.553 102.563C233.63 102.64 233.721 102.701 233.822 102.743C233.922 102.785 234.03 102.807 234.139 102.807H241.261C241.482 102.807 241.693 102.719 241.849 102.563C242.005 102.407 242.092 102.196 242.093 101.975V94.8538C242.092 94.6334 242.004 94.4222 241.848 94.2663C241.693 94.1105 241.481 94.0226 241.261 94.022Z" fill="#7F0000"/>
<path d="M241.261 106.163H234.139C234.03 106.163 233.922 106.184 233.822 106.226C233.721 106.268 233.63 106.329 233.553 106.407C233.476 106.484 233.415 106.576 233.373 106.676C233.332 106.777 233.311 106.885 233.311 106.994V114.116C233.311 114.225 233.332 114.333 233.373 114.434C233.415 114.534 233.476 114.626 233.553 114.703C233.63 114.781 233.721 114.842 233.822 114.884C233.922 114.926 234.03 114.947 234.139 114.947H241.261C241.482 114.947 241.693 114.86 241.849 114.704C242.005 114.548 242.092 114.336 242.093 114.116V106.994C242.092 106.774 242.005 106.562 241.849 106.406C241.693 106.25 241.482 106.163 241.261 106.163Z" fill="#7F0000"/>
<path d="M256.215 57.6001H249.093C248.873 57.6009 248.662 57.6888 248.507 57.8447C248.352 58.0006 248.265 58.2118 248.265 58.4318V65.5563C248.265 65.776 248.352 65.9867 248.507 66.1421C248.663 66.2975 248.873 66.3848 249.093 66.3848H256.215C256.435 66.3849 256.646 66.2978 256.802 66.1424C256.958 65.9871 257.046 65.7763 257.046 65.5563V58.4318C257.046 58.2114 256.958 58.0002 256.802 57.8444C256.646 57.6886 256.435 57.6007 256.215 57.6001Z" fill="#E6E6E6"/>
<path d="M256.215 69.7407H249.093C248.873 69.7415 248.662 69.8295 248.507 69.9854C248.352 70.1413 248.265 70.3524 248.265 70.5725V77.6969C248.265 77.9167 248.352 78.1274 248.507 78.2828C248.663 78.4381 248.873 78.5255 249.093 78.5255H256.215C256.435 78.5256 256.646 78.4384 256.802 78.2831C256.958 78.1278 257.046 77.917 257.046 77.6969V70.5725C257.046 70.3521 256.958 70.1409 256.802 69.985C256.646 69.8292 256.435 69.7414 256.215 69.7407Z" fill="#7F0000"/>
<path d="M256.215 81.8813H249.093C248.873 81.8821 248.662 81.9701 248.507 82.126C248.352 82.2819 248.265 82.4931 248.265 82.7131V89.8344C248.264 89.9434 248.286 90.0515 248.327 90.1523C248.368 90.2531 248.429 90.3448 248.506 90.4221C248.583 90.4993 248.675 90.5606 248.775 90.6025C248.876 90.6444 248.984 90.666 249.093 90.6661H256.215C256.435 90.666 256.647 90.5784 256.803 90.4224C256.959 90.2664 257.046 90.0549 257.046 89.8344V82.7131C257.046 82.4927 256.958 82.2815 256.802 82.1257C256.646 81.9698 256.435 81.882 256.215 81.8813Z" fill="#7F0000"/>
<path d="M256.215 94.022H249.093C248.873 94.0228 248.662 94.1107 248.507 94.2667C248.352 94.4226 248.265 94.6337 248.265 94.8538V101.975C248.264 102.084 248.286 102.192 248.327 102.293C248.368 102.394 248.429 102.485 248.506 102.563C248.583 102.64 248.675 102.701 248.775 102.743C248.876 102.785 248.984 102.807 249.093 102.807H256.215C256.435 102.807 256.647 102.719 256.803 102.563C256.959 102.407 257.046 102.196 257.046 101.975V94.8538C257.046 94.6334 256.958 94.4222 256.802 94.2663C256.646 94.1105 256.435 94.0226 256.215 94.022Z" fill="#7F0000"/>
<path d="M256.215 106.163H249.093C248.984 106.163 248.876 106.184 248.775 106.226C248.675 106.268 248.583 106.329 248.506 106.407C248.429 106.484 248.368 106.576 248.327 106.676C248.286 106.777 248.264 106.885 248.265 106.994V114.116C248.264 114.225 248.286 114.333 248.327 114.434C248.368 114.534 248.429 114.626 248.506 114.703C248.583 114.781 248.675 114.842 248.775 114.884C248.876 114.926 248.984 114.947 249.093 114.947H256.215C256.435 114.947 256.647 114.86 256.803 114.704C256.959 114.548 257.046 114.336 257.046 114.116V106.994C257.046 106.774 256.959 106.562 256.803 106.406C256.647 106.25 256.435 106.163 256.215 106.163Z" fill="#E6E6E6"/>
<path d="M271.168 57.6001H264.047C263.827 57.6009 263.616 57.6888 263.461 57.8447C263.305 58.0006 263.218 58.2118 263.218 58.4318V65.5563C263.218 65.776 263.306 65.9867 263.461 66.1421C263.616 66.2975 263.827 66.3848 264.047 66.3848H271.168C271.388 66.3849 271.6 66.2978 271.755 66.1424C271.911 65.9871 271.999 65.7763 272 65.5563V58.4318C271.999 58.2114 271.911 58.0002 271.756 57.8444C271.6 57.6886 271.389 57.6007 271.168 57.6001Z" fill="#E6E6E6"/>
<path d="M271.168 69.7407H264.047C263.827 69.7415 263.616 69.8295 263.461 69.9854C263.305 70.1413 263.218 70.3524 263.218 70.5725V77.6969C263.218 77.9167 263.306 78.1274 263.461 78.2828C263.616 78.4381 263.827 78.5255 264.047 78.5255H271.168C271.388 78.5256 271.6 78.4384 271.755 78.2831C271.911 78.1278 271.999 77.917 272 77.6969V70.5725C271.999 70.3521 271.911 70.1409 271.756 69.985C271.6 69.8292 271.389 69.7414 271.168 69.7407Z" fill="#E6E6E6"/>
<path d="M271.168 81.8813H264.047C263.827 81.8821 263.616 81.9701 263.461 82.126C263.305 82.2819 263.218 82.4931 263.218 82.7131V89.8344C263.218 89.9434 263.239 90.0515 263.281 90.1523C263.322 90.2531 263.383 90.3448 263.46 90.4221C263.537 90.4993 263.628 90.5606 263.729 90.6025C263.83 90.6444 263.938 90.666 264.047 90.6661H271.168C271.389 90.666 271.6 90.5784 271.756 90.4224C271.912 90.2664 272 90.0549 272 89.8344V82.7131C271.999 82.4927 271.911 82.2815 271.756 82.1257C271.6 81.9698 271.389 81.882 271.168 81.8813Z" fill="#7F0000"/>
<path d="M271.168 94.022H264.047C263.827 94.0228 263.616 94.1107 263.461 94.2667C263.305 94.4226 263.218 94.6337 263.218 94.8538V101.975C263.218 102.084 263.239 102.192 263.281 102.293C263.322 102.394 263.383 102.485 263.46 102.563C263.537 102.64 263.628 102.701 263.729 102.743C263.83 102.785 263.938 102.807 264.047 102.807H271.168C271.389 102.807 271.6 102.719 271.756 102.563C271.912 102.407 272 102.196 272 101.975V94.8538C271.999 94.6334 271.911 94.4222 271.756 94.2663C271.6 94.1105 271.389 94.0226 271.168 94.022Z" fill="#E6E6E6"/>
<path d="M271.168 106.163H264.047C263.938 106.163 263.83 106.184 263.729 106.226C263.628 106.268 263.537 106.329 263.46 106.407C263.383 106.484 263.322 106.576 263.281 106.676C263.239 106.777 263.218 106.885 263.218 106.994V114.116C263.218 114.225 263.239 114.333 263.281 114.434C263.322 114.534 263.383 114.626 263.46 114.703C263.537 114.781 263.628 114.842 263.729 114.884C263.83 114.926 263.938 114.947 264.047 114.947H271.168C271.389 114.947 271.6 114.86 271.756 114.704C271.912 114.548 272 114.336 272 114.116V106.994C272 106.774 271.912 106.562 271.756 106.406C271.6 106.25 271.389 106.163 271.168 106.163Z" fill="#E6E6E6"/>
<path d="M107.482 211.158H107.284L107.454 211.136L107.482 211.158Z" fill="#2F2E41"/>
<path d="M90.4434 78.3958C102.51 78.3958 112.293 68.6101 112.293 56.5388C112.293 44.4676 102.51 34.6819 90.4434 34.6819C78.3764 34.6819 68.5942 44.4676 68.5942 56.5388C68.5942 68.6101 78.3764 78.3958 90.4434 78.3958Z" fill="#FFB6B6"/>
<path d="M109.577 40.5138C109.577 40.5138 115.292 29.5854 102.72 28.5919C102.72 28.5919 92.0017 18.8658 81.0771 26.8138C81.0771 26.8138 75.1182 26.8138 71.8597 33.5593C71.8597 33.5593 67.1731 31.7813 66.1432 36.5398C66.1432 36.5398 62.7138 46.4748 66.1432 55.4163C69.5725 64.3578 70.7116 65.3513 70.7116 65.3513C70.7116 65.3513 65.0765 46.605 78.7928 45.6115C92.5092 44.6179 107.858 36.0431 109.001 46.9716C110.144 57.9 111.865 60.5927 111.865 60.5927C111.865 60.5927 122.722 44.9846 109.577 40.5138Z" fill="#2F2E41"/>
<path d="M146.962 110.405L146.892 110.776L146.102 114.947L140.643 143.803L140.32 145.502L139.642 149.095L138.715 153.996L136.658 164.857L136.07 167.97L135.849 169.137L135.773 169.547L135.162 172.768L134.976 173.741L133.486 184.787L132.184 194.413L136.54 198.771L133.943 201.368L132.239 211.135L132.242 211.158H62.6765C59.8622 209.334 57.0885 207.454 54.3553 205.517L54.9278 201.231C54.9278 201.231 56.8977 193.575 56.0694 192.66C55.2444 191.745 53.4343 190.111 53.4343 190.111L55.7145 184.787L56.0311 184.048L55.5002 173.034L55.4874 172.768L55.3115 169.137L55.2891 168.67L55.2539 167.969L54.5792 153.996L54.5664 153.765L54.3617 149.53L54.1698 145.502L54.0867 143.803L53.2648 126.806L52.7084 115.264L52.2223 105.216L54.1762 104.553L75.0751 97.4481L83.7319 86.1904L101.749 86.3248L110.569 86.392L125.286 100.046L128.635 101.645L128.66 101.658L131.062 102.807L137.151 105.715L143.588 108.792L146.892 110.369L146.962 110.405Z" fill="#CACACA"/>
<path d="M86.0603 178.367C84.74 178.879 83.3236 179.095 81.9109 179C80.4981 178.904 79.1235 178.501 77.8836 177.816C76.6438 177.132 75.569 176.185 74.7349 175.04C73.9009 173.895 73.3278 172.582 73.0561 171.192L38.9789 166.355L50.8251 152.95L81.3693 159.598C83.734 159.296 86.1273 159.873 88.0955 161.218C90.0638 162.564 91.4703 164.585 92.0486 166.898C92.6268 169.212 92.3366 171.657 91.2329 173.771C90.1292 175.885 88.2888 177.52 86.0603 178.367Z" fill="#FFB6B6"/>
<path d="M70.8665 153.996C70.2353 153.195 69.3416 152.643 68.3433 152.438L54.3618 149.53L52.9259 149.232C52.0914 149.058 51.3031 148.71 50.6126 148.21C49.9221 147.71 49.3449 147.069 48.9188 146.331C48.4768 145.555 48.2094 144.693 48.1353 143.803C48.0686 142.995 48.1654 142.181 48.4199 141.41L53.2648 126.806L56.4084 117.331C56.7894 116.188 57.0143 114.999 57.0768 113.796C57.252 110.466 56.2222 107.185 54.1762 104.553C52.3775 102.24 49.8826 100.567 47.0603 99.7813C44.2379 98.9956 41.2377 99.1388 38.503 100.19C38.423 100.219 38.3399 100.251 38.2599 100.283C36.2987 101.066 34.5465 102.295 33.1417 103.872C31.737 105.45 30.7182 107.332 30.1658 109.371L26.7504 121.8L19.7053 147.422C19 149.989 18.8575 152.678 19.2876 155.305C19.7176 157.932 20.71 160.436 22.1969 162.644C23.6838 164.852 25.63 166.712 27.9023 168.098C30.1746 169.484 32.7194 170.362 35.3626 170.673L55.5002 173.034L64.8191 174.128C65.8967 174.257 66.9835 173.976 67.863 173.34C68.7425 172.704 69.3502 171.759 69.5649 170.695C69.58 170.637 69.5917 170.578 69.6001 170.519L69.8239 169.137L71.7204 157.499L71.7395 157.38C71.8383 156.787 71.8117 156.179 71.6613 155.596C71.511 155.013 71.2402 154.468 70.8665 153.996Z" fill="#CACACA"/>
<path d="M107.766 178.74C109.145 179.06 110.578 179.074 111.963 178.781C113.349 178.487 114.653 177.893 115.784 177.041C116.915 176.189 117.845 175.099 118.509 173.848C119.174 172.598 119.556 171.216 119.629 169.802L152.684 160.206L139.066 148.606L109.765 159.497C107.381 159.532 105.093 160.44 103.334 162.05C101.575 163.659 100.467 165.858 100.221 168.23C99.9746 170.602 100.607 172.982 101.997 174.919C103.388 176.856 105.441 178.216 107.766 178.74Z" fill="#FFB6B6"/>
<path d="M169.096 138.742L153.374 102.548C152.088 99.5761 149.792 97.1562 146.892 95.7175C145.996 95.2761 145.054 94.9328 144.084 94.6938C143.934 94.6554 143.784 94.6202 143.633 94.5914C141.576 94.1423 139.443 94.1818 137.404 94.7066C135.54 95.1856 133.798 96.0522 132.291 97.2501C130.785 98.4479 129.547 99.9499 128.66 101.658C128.651 101.672 128.642 101.687 128.635 101.703C127.644 103.621 127.117 105.744 127.096 107.903C127.076 110.062 127.562 112.195 128.516 114.132L128.711 114.522L139.821 136.842C140.201 137.605 140.414 138.44 140.448 139.292C140.483 140.144 140.336 140.993 140.019 141.784C139.702 142.575 139.221 143.29 138.609 143.883C137.996 144.475 137.265 144.931 136.463 145.221L135.683 145.502L121.65 150.573C120.597 150.949 119.731 151.719 119.234 152.72C118.738 153.722 118.649 154.878 118.986 155.944L119.022 156.056L122.955 168.648C122.974 168.705 122.993 168.763 123.016 168.82C123.05 168.929 123.093 169.035 123.144 169.137C123.562 170.075 124.301 170.833 125.228 171.275C126.154 171.716 127.208 171.812 128.2 171.546L135.773 169.547L137.317 169.137L156.873 163.971C159.446 163.29 161.842 162.062 163.896 160.37C165.951 158.677 167.615 156.56 168.776 154.165C169.937 151.769 170.566 149.15 170.621 146.488C170.677 143.827 170.156 141.184 169.096 138.742Z" fill="#CACACA"/>
<path d="M14.3583 169.137C18.8899 174.666 23.7772 179.894 28.989 184.787H173.528C174.92 184.789 176.255 185.344 177.24 186.329C178.224 187.315 178.778 188.65 178.779 190.043L178.987 226.683C187.879 222.596 196.206 217.378 203.762 211.158C205.859 209.433 207.892 207.634 209.86 205.761C211.149 204.539 212.407 203.287 213.634 202.005C222.832 192.419 230.281 181.295 235.642 169.137H14.3583Z" fill="#3F3D56"/>
<path d="M213.634 202.005C212.409 203.288 211.151 204.54 209.86 205.761H179.092V202.005H213.634Z" fill="white"/>
<path d="M146.674 81.8813C146.522 81.6007 146.298 81.3663 146.023 81.203C145.749 81.0397 145.436 80.9536 145.117 80.9536H40.2746C39.8046 80.9548 39.3542 81.1424 39.0221 81.4752C38.69 81.808 38.5033 82.2589 38.5029 82.7291V145.502H146.892V82.7291C146.894 82.4325 146.819 82.1405 146.674 81.8813Z" fill="#3F3D56"/>
<path d="M38.4081 143.802V151.549C38.4081 151.87 38.4713 152.188 38.5942 152.485C38.717 152.781 38.8971 153.051 39.124 153.278C39.351 153.505 39.6205 153.685 39.9171 153.808C40.2137 153.931 40.5315 153.994 40.8526 153.994H80.8582V169.282H80.3267C80.285 169.282 80.2437 169.29 80.2052 169.306C80.1667 169.322 80.1317 169.345 80.1022 169.375C80.0727 169.404 80.0493 169.439 80.0333 169.478C80.0174 169.516 80.0092 169.558 80.0092 169.599V170.663C80.0092 170.704 80.0174 170.746 80.0333 170.784C80.0493 170.823 80.0727 170.858 80.1022 170.887C80.1317 170.917 80.1667 170.94 80.2052 170.956C80.2437 170.972 80.285 170.98 80.3267 170.98H105.162C105.203 170.98 105.245 170.972 105.283 170.956C105.322 170.94 105.357 170.917 105.386 170.887C105.416 170.858 105.439 170.823 105.455 170.784C105.471 170.746 105.479 170.704 105.479 170.663V169.599C105.479 169.558 105.471 169.516 105.455 169.478C105.439 169.439 105.416 169.404 105.386 169.375C105.357 169.345 105.322 169.322 105.283 169.306C105.245 169.29 105.203 169.282 105.162 169.282H104.63V153.994H144.636C144.957 153.994 145.275 153.931 145.571 153.808C145.868 153.685 146.137 153.505 146.364 153.278C146.591 153.051 146.771 152.781 146.894 152.485C147.017 152.188 147.08 151.87 147.08 151.549V143.802H38.4081Z" fill="#3F3D56"/>
<path d="M91.431 121.57C96.9603 121.57 101.443 117.086 101.443 111.554C101.443 106.023 96.9603 101.539 91.431 101.539C85.9017 101.539 81.4193 106.023 81.4193 111.554C81.4193 117.086 85.9017 121.57 91.431 121.57Z" fill="#7F0000"/>
<path d="M116.94 55.3447H115.341C115.341 43.252 103.377 35.3278 91.308 35.3214C89.5525 35.3163 87.8009 35.4867 86.0793 35.8301C84.1413 36.2172 82.1298 36.681 80.1535 37.2857C72.36 39.6754 65.1326 44.2949 65.1326 55.3447C65.1309 57.4906 65.4039 59.6279 65.9448 61.7045L64.397 62.1076C63.8229 59.8992 63.5328 57.6265 63.5336 55.3447C63.5336 45.6897 67.4959 39.058 74.3395 35.1039C77.9373 33.0244 82.3281 31.684 87.3585 31.0314C89.4518 30.7528 91.5681 30.6885 93.6745 30.8394C107.554 31.8376 116.94 42.4842 116.94 55.3447Z" fill="#7F0000"/>
<path d="M119.604 56.2307L118.974 51.5728C118.818 50.3965 118.252 49.3131 117.375 48.5144C116.812 47.9938 116.138 47.608 115.403 47.3863C114.669 47.1646 113.894 47.1128 113.137 47.2348L112.136 47.3724C111.863 47.4084 111.599 47.4985 111.36 47.6375C111.121 47.7764 110.912 47.9614 110.745 48.1817C110.577 48.4013 110.454 48.652 110.383 48.9194C110.312 49.1868 110.295 49.4656 110.333 49.7397L111.788 60.4695C111.848 60.9069 112.044 61.3143 112.348 61.634C112.652 61.9538 113.049 62.1698 113.483 62.2514C113.611 62.2772 113.742 62.2901 113.873 62.2898C113.967 62.2898 114.061 62.2834 114.154 62.2706L115.274 62.1203C115.956 62.0297 116.613 61.8005 117.203 61.4467C117.794 61.093 118.306 60.6222 118.708 60.0632C118.795 59.9417 118.878 59.8169 118.955 59.6889C119.554 58.6422 119.783 57.4237 119.604 56.2307Z" fill="#7F0000"/>
<path d="M111.49 47.5676C111.197 47.7103 110.941 47.9209 110.745 48.1819C110.577 48.4014 110.454 48.6522 110.383 48.9196C110.312 49.187 110.295 49.4658 110.333 49.7398L111.788 60.4697C111.848 60.907 112.044 61.3144 112.348 61.6342C112.652 61.954 113.049 62.17 113.483 62.2516L111.49 47.5676Z" fill="white"/>
<path d="M119.604 56.2307L118.974 51.5728C118.818 50.3965 118.252 49.3131 117.375 48.5144L118.823 59.1899C118.845 59.3612 118.889 59.529 118.954 59.6889C119.554 58.6421 119.783 57.4237 119.604 56.2307Z" fill="#3F3D56"/>
<path d="M114.625 59.5867C115.062 59.5273 115.282 58.4857 115.116 57.2601C114.95 56.0346 114.46 55.0892 114.023 55.1486C113.585 55.208 113.365 56.2496 113.531 57.4752C113.698 58.7007 114.187 59.6461 114.625 59.5867Z" fill="#3F3D56"/>
<path d="M113.665 53.8284C114.103 53.769 114.323 52.7274 114.156 51.5018C113.99 50.2763 113.501 49.3309 113.063 49.3903C112.626 49.4497 112.406 50.4913 112.572 51.7169C112.738 52.9424 113.228 53.8878 113.665 53.8284Z" fill="#3F3D56"/>
<path d="M119.741 56.0679C120.179 56.0085 120.399 54.9669 120.233 53.7413C120.066 52.5158 119.577 51.5704 119.139 51.6298C118.702 51.6892 118.482 52.7308 118.648 53.9564C118.814 55.1819 119.304 56.1273 119.741 56.0679Z" fill="#3F3D56"/>
<path d="M91.3079 35.3214C89.5525 35.3163 87.8008 35.4867 86.0792 35.8301C84.1413 36.2172 82.1297 36.681 80.1534 37.2857C77.0673 37.1353 74.7968 36.3355 74.3395 35.1039C77.9372 33.0244 82.328 31.684 87.3584 31.0314C89.4518 30.7528 91.5681 30.6885 93.6744 30.8394C93.8974 30.9702 94.0902 31.1467 94.2401 31.3573C94.3901 31.568 94.4937 31.8079 94.5443 32.0615C94.6946 33.1748 93.425 34.3585 91.3079 35.3214Z" fill="#3F3D56"/>
<path d="M70.8921 66.4454L68.4297 56.2051C68.3419 55.8356 68.1469 55.5003 67.8692 55.2414C67.5916 54.9824 67.2436 54.8113 66.869 54.7495C66.7632 54.733 66.6563 54.7244 66.5493 54.7239C66.3984 54.7244 66.2481 54.7427 66.1015 54.7783L65.1485 55.0086C63.9215 55.3055 62.8623 56.0771 62.2034 57.1543C61.5445 58.2315 61.3397 59.5261 61.634 60.7542L62.7373 65.3481C62.9892 66.4297 63.5891 67.3985 64.445 68.1058C64.5837 68.2178 64.7289 68.3214 64.8799 68.4161C65.416 68.7522 66.0139 68.9774 66.6384 69.0785C67.2629 69.1796 67.9013 69.1546 68.516 69.0048L69.4658 68.7744C69.7169 68.7158 69.9532 68.6058 70.1598 68.4513C70.4669 68.2273 70.7005 67.917 70.8309 67.5598C70.9613 67.2026 70.9826 66.8147 70.8921 66.4454Z" fill="#7F0000"/>
<path d="M65.7298 64.5401C66.1591 64.4368 66.2726 63.3782 65.9834 62.1758C65.6941 60.9733 65.1116 60.0823 64.6823 60.1857C64.253 60.289 64.1395 61.3476 64.4288 62.55C64.718 63.7525 65.3005 64.6435 65.7298 64.5401Z" fill="#3F3D56"/>
<path d="M62.5318 65.4999C62.9611 65.3965 63.0746 64.338 62.7854 63.1355C62.4961 61.9331 61.9136 61.0421 61.4843 61.1454C61.055 61.2487 60.9415 62.3073 61.2308 63.5097C61.52 64.7122 62.1025 65.6032 62.5318 65.4999Z" fill="#3F3D56"/>
<path d="M71.0488 66.4071L68.5864 56.1667C68.4904 55.767 68.2788 55.4045 67.9778 55.1245C67.6769 54.8445 67.3001 54.6596 66.8947 54.5928L70.2557 68.5793C70.5877 68.3361 70.8401 68 70.9813 67.6134C71.1224 67.2268 71.1459 66.8071 71.0488 66.4071Z" fill="white"/>
<path d="M62.1904 58.7262C62.1225 58.4414 61.9949 58.1743 61.8162 57.9424C61.4701 58.8392 61.4065 59.8204 61.634 60.7544L62.7373 65.3483C62.9892 66.4299 63.5891 67.3987 64.445 68.106L62.1904 58.7262Z" fill="#3F3D56"/>
</g>
<defs>
<clipPath id="clip0_504_278">
<rect width="272" height="237" fill="white"/>
</clipPath>
</defs>
</svg>
