<svg width="58" height="66" viewBox="0 0 58 66" fill="none" xmlns="http://www.w3.org/2000/svg">
<path d="M57.6961 0.703857L52.5184 58.7074L29.2443 65.1597L6.03441 58.7165L0.862183 0.703857H57.6961Z" fill="#264DE4"/>
<path d="M48.0857 55.0139L52.5104 5.44727H29.2792V60.2278L48.0857 55.0139Z" fill="#2965F1"/>
<path d="M12.7194 26.9634L13.3571 34.0783H29.2791V26.9634H12.7194Z" fill="#EBEBEB"/>
<path d="M29.2792 12.5623H29.2546H11.4381L12.0849 19.6773H29.2792V12.5623Z" fill="#EBEBEB"/>
<path d="M29.2792 52.8442V45.4416L29.248 45.4499L21.324 43.3103L20.8174 37.6357H16.9669H13.675L14.6719 48.8073L29.2464 52.8533L29.2792 52.8442Z" fill="#EBEBEB"/>
<path d="M38.0159 34.0781L37.19 43.3058L29.2545 45.4476V52.8499L43.8407 48.8073L43.9477 47.6053L45.6196 28.8738L45.7932 26.9632L47.0777 12.5623H29.2545V19.6773H39.2803L38.6329 26.9632H29.2545V34.0781H38.0159Z" fill="white"/>
</svg>
