<svg width="449" height="413" viewBox="0 0 449 413" fill="none" xmlns="http://www.w3.org/2000/svg">
<path d="M0 306.523L224.5 200.047L224.5 3.80182e-05L-5.3797e-06 106.477L0 306.523Z" fill="url(#paint0_linear_502_24)"/>
<path fill-rule="evenodd" clip-rule="evenodd" d="M224.5 180.688L224.5 187.141L-3.47077e-07 293.617L-5.20616e-07 287.164L224.5 180.688ZM224.5 174.234L-6.94154e-07 280.711L-8.67693e-07 274.258L224.5 167.781L224.5 174.234ZM-1.21477e-06 261.352L-1.04123e-06 267.805L224.5 161.328L224.5 154.875L-1.21477e-06 261.352ZM-1.38831e-06 254.898L-1.56185e-06 248.445L224.5 141.969L224.5 148.422L-1.38831e-06 254.898ZM-1.90892e-06 235.539L-1.73539e-06 241.992L224.5 135.516L224.5 129.063L-1.90892e-06 235.539ZM-2.08246e-06 229.086L-2.256e-06 222.633L224.5 116.156L224.5 122.609L-2.08246e-06 229.086ZM-2.60308e-06 209.727L-2.42954e-06 216.18L224.5 109.703L224.5 103.25L-2.60308e-06 209.727ZM-2.77662e-06 203.273L-2.95016e-06 196.82L224.5 90.3438L224.5 96.7969L-2.77662e-06 203.273ZM-3.29723e-06 183.914L-3.12369e-06 190.367L224.5 83.8907L224.5 77.4375L-3.29723e-06 183.914ZM-3.47077e-06 177.461L-3.64431e-06 171.008L224.5 64.5313L224.5 70.9844L-3.47077e-06 177.461ZM-3.99139e-06 158.102L-3.81785e-06 164.555L224.5 58.0782L224.5 51.625L-3.99139e-06 158.102ZM-4.16493e-06 151.648L-4.33846e-06 145.195L224.5 38.7188L224.5 45.1719L-4.16493e-06 151.648ZM-4.68554e-06 132.289L-4.512e-06 138.742L224.5 32.2657L224.5 25.8125L-4.68554e-06 132.289ZM-4.85908e-06 125.836L-5.03262e-06 119.383L224.5 12.9063L224.5 19.3594L-4.85908e-06 125.836ZM-5.3797e-06 106.477L-5.20616e-06 112.93L224.5 6.45316L224.5 3.80182e-05L-5.3797e-06 106.477ZM224.5 200.047L224.5 193.594L-1.73539e-07 300.07L0 306.523L224.5 200.047Z" fill="url(#paint1_linear_502_24)"/>
<path d="M224.5 200.047L449 306.524L449 106.477L224.5 0.000595093L224.5 200.047Z" fill="url(#paint2_linear_502_24)"/>
<path fill-rule="evenodd" clip-rule="evenodd" d="M449 287.165L449 293.618L224.5 187.141L224.5 180.688L449 287.165ZM449 280.711L224.5 174.235L224.5 167.782L449 274.258L449 280.711ZM224.5 154.876L224.5 161.329L449 267.805L449 261.352L224.5 154.876ZM224.5 148.422L224.5 141.969L449 248.446L449 254.899L224.5 148.422ZM224.5 129.063L224.5 135.516L449 241.993L449 235.54L224.5 129.063ZM224.5 122.61L224.5 116.157L449 222.633L449 229.086L224.5 122.61ZM224.5 103.251L224.5 109.704L449 216.18L449 209.727L224.5 103.251ZM224.5 96.7975L224.5 90.3443L449 196.821L449 203.274L224.5 96.7975ZM224.5 77.4381L224.5 83.8912L449 190.368L449 183.915L224.5 77.4381ZM224.5 70.985L224.5 64.5318L449 171.008L449 177.461L224.5 70.985ZM224.5 51.6256L224.5 58.0787L449 164.555L449 158.102L224.5 51.6256ZM224.5 45.1725L224.5 38.7193L449 145.196L449 151.649L224.5 45.1725ZM224.5 25.8131L224.5 32.2662L449 138.743L449 132.29L224.5 25.8131ZM224.5 19.36L224.5 12.9068L449 119.383L449 125.836L224.5 19.36ZM224.5 0.000595175L224.5 6.45372L449 112.93L449 106.477L224.5 0.000595175ZM449 306.524L449 300.071L224.5 193.594L224.5 200.047L449 306.524Z" fill="url(#paint3_linear_502_24)"/>
<path d="M0 106.476L224.5 212.953L224.5 412.999L-5.3797e-06 306.523L0 106.476Z" fill="url(#paint4_linear_502_24)"/>
<path fill-rule="evenodd" clip-rule="evenodd" d="M224.5 232.312L224.5 225.859L-3.47077e-07 119.382L-5.20616e-07 125.835L224.5 232.312ZM224.5 238.765L-6.94154e-07 132.289L-8.67693e-07 138.742L224.5 245.218L224.5 238.765ZM-1.21477e-06 151.648L-1.04123e-06 145.195L224.5 251.671L224.5 258.124L-1.21477e-06 151.648ZM-1.38831e-06 158.101L-1.56185e-06 164.554L224.5 271.031L224.5 264.578L-1.38831e-06 158.101ZM-1.90892e-06 177.46L-1.73539e-06 171.007L224.5 277.484L224.5 283.937L-1.90892e-06 177.46ZM-2.08246e-06 183.914L-2.256e-06 190.367L224.5 296.843L224.5 290.39L-2.08246e-06 183.914ZM-2.60308e-06 203.273L-2.42954e-06 196.82L224.5 303.296L224.5 309.749L-2.60308e-06 203.273ZM-2.77662e-06 209.726L-2.95016e-06 216.179L224.5 322.656L224.5 316.203L-2.77662e-06 209.726ZM-3.29723e-06 229.085L-3.12369e-06 222.632L224.5 329.109L224.5 335.562L-3.29723e-06 229.085ZM-3.47077e-06 235.539L-3.64431e-06 241.992L224.5 348.468L224.5 342.015L-3.47077e-06 235.539ZM-3.99139e-06 254.898L-3.81785e-06 248.445L224.5 354.921L224.5 361.374L-3.99139e-06 254.898ZM-4.16493e-06 261.351L-4.33846e-06 267.804L224.5 374.281L224.5 367.828L-4.16493e-06 261.351ZM-4.68554e-06 280.71L-4.512e-06 274.257L224.5 380.734L224.5 387.187L-4.68554e-06 280.71ZM-4.85908e-06 287.164L-5.03262e-06 293.617L224.5 400.093L224.5 393.64L-4.85908e-06 287.164ZM-5.3797e-06 306.523L-5.20616e-06 300.07L224.5 406.546L224.5 412.999L-5.3797e-06 306.523ZM224.5 212.953L224.5 219.406L-1.73539e-07 112.929L0 106.476L224.5 212.953Z" fill="url(#paint5_linear_502_24)"/>
<path d="M224.5 212.952L449 106.476L449 306.523L224.5 412.999L224.5 212.952Z" fill="url(#paint6_linear_502_24)"/>
<path fill-rule="evenodd" clip-rule="evenodd" d="M449 125.835L449 119.382L224.5 225.858L224.5 232.311L449 125.835ZM449 132.288L224.5 238.765L224.5 245.218L449 138.741L449 132.288ZM224.5 258.124L224.5 251.671L449 145.194L449 151.647L224.5 258.124ZM224.5 264.577L224.5 271.03L449 164.554L449 158.101L224.5 264.577ZM224.5 283.936L224.5 277.483L449 171.007L449 177.46L224.5 283.936ZM224.5 290.39L224.5 296.843L449 190.366L449 183.913L224.5 290.39ZM224.5 309.749L224.5 303.296L449 196.819L449 203.272L224.5 309.749ZM224.5 316.202L224.5 322.655L449 216.179L449 209.726L224.5 316.202ZM224.5 335.561L224.5 329.108L449 222.632L449 229.085L224.5 335.561ZM224.5 342.015L224.5 348.468L449 241.991L449 235.538L224.5 342.015ZM224.5 361.374L224.5 354.921L449 248.444L449 254.897L224.5 361.374ZM224.5 367.827L224.5 374.28L449 267.804L449 261.351L224.5 367.827ZM224.5 387.186L224.5 380.733L449 274.257L449 280.71L224.5 387.186ZM224.5 393.64L224.5 400.093L449 293.616L449 287.163L224.5 393.64ZM224.5 412.999L224.5 406.546L449 300.069L449 306.523L224.5 412.999ZM449 106.476L449 112.929L224.5 219.405L224.5 212.952L449 106.476Z" fill="url(#paint7_linear_502_24)"/>
<defs>
<linearGradient id="paint0_linear_502_24" x1="112.25" y1="253.432" x2="34.8163" y2="89.7157" gradientUnits="userSpaceOnUse">
<stop/>
<stop offset="0.205" stop-color="#2F2F2F"/>
<stop offset="1" stop-color="#FCFCFC"/>
</linearGradient>
<linearGradient id="paint1_linear_502_24" x1="187.083" y1="246.832" x2="22.1509" y2="49.1526" gradientUnits="userSpaceOnUse">
<stop/>
<stop offset="1" stop-opacity="0"/>
</linearGradient>
<linearGradient id="paint2_linear_502_24" x1="244.193" y1="209.727" x2="338.263" y2="65.2709" gradientUnits="userSpaceOnUse">
<stop stop-color="#5F5C5B"/>
<stop offset="1" stop-color="white"/>
</linearGradient>
<linearGradient id="paint3_linear_502_24" x1="228.439" y1="214.567" x2="395.896" y2="57.8824" gradientUnits="userSpaceOnUse">
<stop/>
<stop offset="0.9999" stop-opacity="0.02"/>
<stop offset="1" stop-opacity="0"/>
</linearGradient>
<linearGradient id="paint4_linear_502_24" x1="51.5743" y1="126.752" x2="-0.419982" y2="381.521" gradientUnits="userSpaceOnUse">
<stop stop-color="white"/>
<stop offset="1" stop-color="#5F5F5F"/>
</linearGradient>
<linearGradient id="paint5_linear_502_24" x1="54.6081" y1="136.693" x2="2.80348" y2="330.68" gradientUnits="userSpaceOnUse">
<stop stop-color="#282828"/>
<stop offset="1" stop-color="#181818"/>
</linearGradient>
<linearGradient id="paint6_linear_502_24" x1="260.905" y1="208.767" x2="440.642" y2="256.066" gradientUnits="userSpaceOnUse">
<stop stop-color="white"/>
<stop offset="1" stop-color="#4E4E4E"/>
</linearGradient>
<linearGradient id="paint7_linear_502_24" x1="248.77" y1="216.223" x2="495.224" y2="238.292" gradientUnits="userSpaceOnUse">
<stop stop-color="#1C1C1C"/>
<stop offset="1" stop-color="#181818"/>
</linearGradient>
</defs>
</svg>
