<svg width="44" height="65" viewBox="0 0 44 65" fill="none" xmlns="http://www.w3.org/2000/svg">
<path d="M11.4177 64.5245C17.3474 64.5245 22.16 59.7119 22.16 53.7821V43.0398H11.4177C5.48787 43.0398 0.675293 47.8524 0.675293 53.7821C0.675293 59.7119 5.48787 64.5245 11.4177 64.5245Z" fill="#0ACF83"/>
<path d="M0.675293 32.2973C0.675293 26.3675 5.48787 21.5549 11.4177 21.5549H22.16V43.0396H11.4177C5.48787 43.0396 0.675293 38.227 0.675293 32.2973Z" fill="#A259FF"/>
<path d="M0.675293 10.8127C0.675293 4.88289 5.48787 0.0703125 11.4177 0.0703125H22.16V21.555H11.4177C5.48787 21.555 0.675293 16.7425 0.675293 10.8127Z" fill="#F24E1E"/>
<path d="M22.16 0.0703125H32.9024C38.8322 0.0703125 43.6448 4.88289 43.6448 10.8127C43.6448 16.7425 38.8322 21.555 32.9024 21.555H22.16V0.0703125Z" fill="#FF7262"/>
<path d="M43.6448 32.2973C43.6448 38.227 38.8322 43.0396 32.9024 43.0396C26.9726 43.0396 22.16 38.227 22.16 32.2973C22.16 26.3675 26.9726 21.5549 32.9024 21.5549C38.8322 21.5549 43.6448 26.3675 43.6448 32.2973Z" fill="#1ABCFE"/>
</svg>
