<svg width="57" height="42" viewBox="0 0 57 42" fill="none" xmlns="http://www.w3.org/2000/svg">
<path d="M56.7245 5.94019V37.4494C56.7245 39.4974 54.9953 41.1556 52.8597 41.1556H43.8378V20.151L28.3761 31.274L12.9144 20.151V41.1579H3.89254C3.38481 41.1579 2.88205 41.0619 2.41299 40.8756C1.94393 40.6892 1.51777 40.416 1.15886 40.0716C0.799945 39.7272 0.515312 39.3183 0.321225 38.8684C0.127138 38.4185 0.0274003 37.9363 0.0277107 37.4494V5.94019C0.0277107 1.35732 5.48242 -1.2592 9.30473 1.49098L12.9144 4.08937L28.3761 15.2079L43.8378 4.08484L47.4475 1.49098C51.2675 -1.25694 56.7245 1.35732 56.7245 5.94019Z" fill="#EA4335"/>
</svg>
