<svg width="49" height="65" viewBox="0 0 49 65" fill="none" xmlns="http://www.w3.org/2000/svg">
<path d="M15.8192 49.9163C15.8192 49.9163 13.3562 51.3486 17.5721 51.8333C22.6796 52.4159 25.2899 52.3325 30.9184 51.2671C30.9184 51.2671 32.3983 52.1949 34.4647 52.9987C21.8473 58.4063 5.90864 52.6854 15.8192 49.9163V49.9163ZM14.2773 42.8596C14.2773 42.8596 11.5148 44.9046 15.7339 45.3409C21.1899 45.9037 25.4985 45.9498 32.9543 44.5142C32.9543 44.5142 33.9855 45.5596 35.607 46.1314C20.3516 50.5923 3.35981 46.4832 14.2773 42.8596" fill="#5382A1"/>
<path d="M27.2753 30.8893C30.3844 34.4687 26.4585 37.6897 26.4585 37.6897C26.4585 37.6897 34.3526 33.6145 30.7272 28.5113C27.3412 23.7525 24.7444 21.3877 38.8017 13.2351C38.8017 13.2351 16.7365 18.7459 27.2753 30.8892" fill="#E76F00"/>
<path d="M43.9629 55.1361C43.9629 55.1361 45.7856 56.6378 41.9555 57.7997C34.6725 60.0061 11.6428 60.6723 5.24517 57.8876C2.94548 56.8873 7.25821 55.4989 8.61474 55.2074C10.0295 54.9006 10.8381 54.9578 10.8381 54.9578C8.28051 53.156 -5.69305 58.4956 3.74029 60.0245C29.4661 64.1966 50.6358 58.146 43.9629 55.1361ZM17.0034 35.5482C17.0034 35.5482 5.28921 38.3307 12.8553 39.3409C16.0498 39.7686 22.4181 39.6719 28.3501 39.1748C33.1981 38.7661 38.066 37.8964 38.066 37.8964C38.066 37.8964 36.3566 38.6286 35.1199 39.473C23.2241 42.6017 0.243629 41.1462 6.85941 37.9459C12.4544 35.2414 17.0036 35.5482 17.0036 35.5482H17.0034ZM38.0177 47.2944C50.1105 41.0105 44.5192 34.972 40.6167 35.7856C39.6601 35.9845 39.2337 36.157 39.2337 36.157C39.2337 36.157 39.5888 35.6009 40.267 35.3601C47.9873 32.6458 53.9249 43.3655 37.7747 47.6111C37.7747 47.6112 37.9619 47.444 38.0177 47.2944" fill="#5382A1"/>
<path d="M30.7271 0.0704991C30.7271 0.0704991 37.4242 6.77007 24.3752 17.0716C13.9113 25.3354 21.9891 30.0471 24.3709 35.4304C18.2629 29.9196 13.7803 25.0683 16.7876 20.5533C21.2013 13.9252 33.4291 10.7118 30.7271 0.0703125" fill="#E76F00"/>
<path d="M18.1918 64.3218C29.7993 65.0649 47.6237 63.9095 48.0458 58.4172C48.0458 58.4172 47.2344 60.4995 38.4529 62.1529C28.5458 64.0172 16.3268 63.7996 9.07947 62.6047C9.07965 62.6047 10.5631 63.8327 18.192 64.3218" fill="#5382A1"/>
</svg>
