<svg width="65" height="66" viewBox="0 0 65 66" fill="none" xmlns="http://www.w3.org/2000/svg">
<path d="M64.7162 0.703857H0.260376V65.1597H64.7162V0.703857Z" fill="#F7DF1E"/>
<path d="M43.5583 51.0603C44.8566 53.1802 46.5458 54.7384 49.5333 54.7384C52.043 54.7384 53.6462 53.4841 53.6462 51.7509C53.6462 49.674 51.999 48.9384 49.2366 47.7301L47.7224 47.0805C43.3516 45.2184 40.4481 42.8857 40.4481 37.9543C40.4481 33.4117 43.9092 29.9536 49.3184 29.9536C53.1694 29.9536 55.9379 31.2939 57.933 34.8031L53.2165 37.8315C52.178 35.9695 51.0577 35.2359 49.3184 35.2359C47.5443 35.2359 46.42 36.3613 46.42 37.8315C46.42 39.6486 47.5454 40.3842 50.1441 41.5096L51.6583 42.1583C56.8045 44.3651 59.7101 46.6149 59.7101 51.6732C59.7101 57.1264 55.4264 60.1138 49.6734 60.1138C44.0484 60.1138 40.4143 57.4333 38.6361 53.9199L43.5583 51.0603ZM22.162 51.5852C23.1135 53.2733 23.9791 54.7006 26.0601 54.7006C28.05 54.7006 29.3054 53.922 29.3054 50.8946V30.2994H35.3622V50.9764C35.3622 57.2481 31.6851 60.1026 26.3179 60.1026C21.4684 60.1026 18.6599 57.5929 17.2317 54.5701L22.162 51.5852Z" fill="black"/>
</svg>
