<svg width="84" height="68" viewBox="0 0 84 68" fill="none" xmlns="http://www.w3.org/2000/svg">
<g clip-path="url(#clip0_547_36)">
<path d="M27.3913 66.5459C26.57 66.5453 25.7825 66.2073 25.202 65.606C24.6215 65.0048 24.2954 64.1896 24.2954 63.3396C24.2954 62.4897 24.6215 61.6745 25.202 61.0732C25.7825 60.472 26.57 60.134 27.3913 60.1334H73.4089C73.1774 59.6936 72.8358 59.3265 72.4199 59.0707C72.004 58.8148 71.5292 58.6796 71.0453 58.6792H-20.4254C-21.6188 58.6806 -22.7629 59.1722 -23.6062 60.0461C-24.4495 60.92 -24.9231 62.1046 -24.923 63.3396C-24.9224 64.5745 -24.4485 65.7586 -23.6053 66.6323C-22.7622 67.506 -21.6186 67.9979 -20.4254 68.0001H71.0453C71.5292 67.9997 72.004 67.8645 72.4199 67.6086C72.8358 67.3527 73.1774 66.9856 73.4089 66.5459L27.3913 66.5459Z" fill="#FFA800"/>
<path d="M73.4701 61.8999H29.7181C29.6511 61.8998 29.587 61.8721 29.5397 61.8231C29.4924 61.774 29.4658 61.7075 29.4658 61.6382C29.4658 61.5689 29.4924 61.5024 29.5397 61.4534C29.587 61.4043 29.6511 61.3766 29.7181 61.3765H73.4701C73.5371 61.3766 73.6013 61.4043 73.6486 61.4534C73.6959 61.5024 73.7224 61.5689 73.7224 61.6382C73.7224 61.7075 73.6959 61.774 73.6486 61.8231C73.6013 61.8721 73.5371 61.8998 73.4701 61.8999Z" fill="#FFA800"/>
<path d="M73.47 63.6014H29.718C29.6509 63.6014 29.5866 63.5738 29.5392 63.5247C29.4917 63.4756 29.4651 63.409 29.4651 63.3396C29.4651 63.2702 29.4917 63.2036 29.5392 63.1545C29.5866 63.1055 29.6509 63.0779 29.718 63.0779H73.47C73.5371 63.0779 73.6014 63.1055 73.6488 63.1545C73.6963 63.2036 73.7229 63.2702 73.7229 63.3396C73.7229 63.409 73.6963 63.4756 73.6488 63.5247C73.6014 63.5738 73.5371 63.6014 73.47 63.6014Z" fill="#FFA800"/>
<path d="M73.4701 65.3025H29.7181C29.6511 65.3024 29.587 65.2747 29.5397 65.2256C29.4924 65.1766 29.4658 65.1101 29.4658 65.0408C29.4658 64.9715 29.4924 64.905 29.5397 64.8559C29.587 64.8069 29.6511 64.7792 29.7181 64.7791H73.4701C73.5371 64.7792 73.6013 64.8069 73.6486 64.8559C73.6959 64.905 73.7224 64.9715 73.7224 65.0408C73.7224 65.1101 73.6959 65.1766 73.6486 65.2256C73.6013 65.2747 73.5371 65.3024 73.4701 65.3025Z" fill="#FFA800"/>
<path d="M15.5049 57.5161C14.6837 57.5155 13.8962 57.1775 13.3157 56.5762C12.7351 55.975 12.409 55.1598 12.409 54.3099C12.409 53.4599 12.7351 52.6447 13.3157 52.0435C13.8962 51.4422 14.6837 51.1042 15.5049 51.1036H61.5225C61.2911 50.6639 60.9495 50.2968 60.5336 50.0409C60.1177 49.785 59.6429 49.6498 59.1591 49.6494H-32.3117C-33.5051 49.6508 -34.6491 50.1425 -35.4925 51.0163C-36.3358 51.8902 -36.8094 53.0748 -36.8093 54.3098C-36.8087 55.5447 -36.3348 56.7288 -35.4917 57.6025C-34.6485 58.4762 -33.5049 58.9681 -32.3117 58.9703H59.1591C59.6429 58.9699 60.1177 58.8347 60.5336 58.5788C60.9495 58.3229 61.2911 57.9558 61.5225 57.5161L15.5049 57.5161Z" fill="#FFA800"/>
<path d="M61.5837 52.8701H17.8316C17.7647 52.87 17.7005 52.8423 17.6532 52.7933C17.6059 52.7442 17.5793 52.6777 17.5793 52.6084C17.5793 52.5391 17.6059 52.4726 17.6532 52.4236C17.7005 52.3745 17.7647 52.3468 17.8316 52.3467H61.5837C61.6507 52.3467 61.7151 52.3743 61.7625 52.4233C61.8099 52.4724 61.8366 52.539 61.8366 52.6084C61.8366 52.6778 61.8099 52.7444 61.7625 52.7935C61.7151 52.8426 61.6507 52.8701 61.5837 52.8701Z" fill="#FFA800"/>
<path d="M61.5837 54.5713H17.8316C17.7646 54.5713 17.7002 54.5437 17.6528 54.4947C17.6054 54.4456 17.5787 54.379 17.5787 54.3096C17.5787 54.2402 17.6054 54.1736 17.6528 54.1245C17.7002 54.0754 17.7646 54.0479 17.8316 54.0479H61.5837C61.6507 54.0479 61.7151 54.0754 61.7625 54.1245C61.8099 54.1736 61.8366 54.2402 61.8366 54.3096C61.8366 54.379 61.8099 54.4456 61.7625 54.4947C61.7151 54.5437 61.6507 54.5713 61.5837 54.5713Z" fill="#FFA800"/>
<path d="M61.5837 56.2727H17.8316C17.7647 56.2726 17.7005 56.2449 17.6532 56.1959C17.6059 56.1468 17.5793 56.0803 17.5793 56.011C17.5793 55.9417 17.6059 55.8752 17.6532 55.8261C17.7005 55.7771 17.7647 55.7494 17.8316 55.7493H61.5837C61.6169 55.7492 61.6499 55.7559 61.6806 55.769C61.7114 55.7821 61.7393 55.8014 61.7629 55.8257C61.7864 55.85 61.8051 55.8789 61.8179 55.9107C61.8306 55.9425 61.8372 55.9766 61.8372 56.011C61.8372 56.0454 61.8306 56.0795 61.8179 56.1113C61.8051 56.1431 61.7864 56.172 61.7629 56.1963C61.7393 56.2206 61.7114 56.2399 61.6806 56.253C61.6499 56.2661 61.6169 56.2728 61.5837 56.2727Z" fill="#FFA800"/>
<path d="M3.61859 48.1848C2.7973 48.1843 2.00985 47.8462 1.42931 47.245C0.84877 46.6437 0.522661 45.8285 0.522661 44.9786C0.522661 44.1286 0.84877 43.3134 1.42931 42.7122C2.00985 42.1109 2.7973 41.7729 3.61859 41.7723H49.6362C49.4047 41.3326 49.0631 40.9655 48.6472 40.7096C48.2313 40.4537 47.7565 40.3185 47.2727 40.3181H-44.1981C-45.3915 40.3195 -46.5356 40.8111 -47.3789 41.685C-48.2222 42.5589 -48.6958 43.7435 -48.6957 44.9786C-48.6951 46.2134 -48.2212 47.3975 -47.3781 48.2712C-46.5349 49.1449 -45.3913 49.6368 -44.1981 49.639H47.2727C47.7565 49.6386 48.2313 49.5034 48.6472 49.2475C49.0631 48.9916 49.4047 48.6245 49.6362 48.1848L3.61859 48.1848Z" fill="#FFA800"/>
<path d="M49.6973 43.5391H5.94529C5.87833 43.5389 5.81415 43.5113 5.76685 43.4622C5.71955 43.4132 5.69299 43.3467 5.69299 43.2774C5.69299 43.2081 5.71955 43.1416 5.76685 43.0925C5.81415 43.0434 5.87833 43.0158 5.94529 43.0156H49.6973C49.7644 43.0156 49.8287 43.0432 49.8761 43.0923C49.9236 43.1414 49.9502 43.2079 49.9502 43.2774C49.9502 43.3468 49.9236 43.4134 49.8761 43.4624C49.8287 43.5115 49.7644 43.5391 49.6973 43.5391Z" fill="#FFA800"/>
<path d="M49.6973 45.2403H5.94529C5.91208 45.2403 5.87918 45.2335 5.8485 45.2204C5.81782 45.2072 5.78994 45.1879 5.76645 45.1636C5.74297 45.1393 5.72434 45.1105 5.71164 45.0787C5.69893 45.0469 5.69238 45.0129 5.69238 44.9785C5.69238 44.9442 5.69893 44.9101 5.71164 44.8784C5.72434 44.8466 5.74297 44.8178 5.76645 44.7935C5.78994 44.7692 5.81782 44.7499 5.8485 44.7367C5.87918 44.7236 5.91208 44.7168 5.94529 44.7168H49.6973C49.7305 44.7168 49.7634 44.7236 49.7941 44.7367C49.8248 44.7499 49.8527 44.7692 49.8761 44.7935C49.8996 44.8178 49.9183 44.8466 49.931 44.8784C49.9437 44.9101 49.9502 44.9442 49.9502 44.9785C49.9502 45.0129 49.9437 45.0469 49.931 45.0787C49.9183 45.1105 49.8996 45.1393 49.8761 45.1636C49.8527 45.1879 49.8248 45.2072 49.7941 45.2204C49.7634 45.2335 49.7305 45.2403 49.6973 45.2403Z" fill="#FFA800"/>
<path d="M49.6973 46.9414H5.94529C5.87821 46.9414 5.81388 46.9139 5.76645 46.8648C5.71902 46.8157 5.69238 46.7491 5.69238 46.6797C5.69238 46.6103 5.71902 46.5437 5.76645 46.4946C5.81388 46.4455 5.87821 46.418 5.94529 46.418H49.6973C49.7305 46.418 49.7634 46.4247 49.7941 46.4379C49.8248 46.451 49.8527 46.4703 49.8761 46.4946C49.8996 46.5189 49.9183 46.5478 49.931 46.5795C49.9437 46.6113 49.9502 46.6453 49.9502 46.6797C49.9502 46.7141 49.9437 46.7481 49.931 46.7799C49.9183 46.8116 49.8996 46.8405 49.8761 46.8648C49.8527 46.8891 49.8248 46.9084 49.7941 46.9215C49.7634 46.9347 49.7305 46.9414 49.6973 46.9414Z" fill="#FFA800"/>
<path d="M50.7077 28.2784C50.4677 28.278 50.2368 28.1833 50.0618 28.0134C49.8868 27.8434 49.7807 27.611 49.765 27.3632L49.6246 25.1445C49.6082 24.8853 49.6919 24.63 49.8574 24.4348C50.0228 24.2395 50.2565 24.1203 50.5069 24.1033L67.3031 22.9649C67.5678 22.947 67.8334 22.9832 68.0846 23.0715C68.3359 23.1597 68.5678 23.2984 68.7673 23.4794C68.9668 23.6605 69.1298 23.8804 69.2472 24.1267C69.3645 24.373 69.4338 24.6408 69.4512 24.9148C69.4685 25.1888 69.4335 25.4637 69.3482 25.7237C69.2629 25.9837 69.129 26.2238 68.954 26.4302C68.7791 26.6367 68.5666 26.8054 68.3286 26.9268C68.0906 27.0483 67.8319 27.12 67.5671 27.138L50.771 28.2763C50.7498 28.2777 50.7287 28.2784 50.7077 28.2784Z" fill="#FFA800"/>
<path d="M54.0195 28.5647C53.7749 28.5643 53.5399 28.4659 53.3637 28.2902C53.1875 28.1145 53.0839 27.875 53.0745 27.622L52.9548 24.308C52.9501 24.1795 52.97 24.0513 53.0132 23.9308C53.0565 23.8102 53.1222 23.6997 53.2067 23.6054C53.2912 23.5111 53.3929 23.435 53.5058 23.3814C53.6188 23.3278 53.7408 23.2978 53.865 23.293L67.6769 22.7587C67.9277 22.7491 68.1719 22.8429 68.3558 23.0195C68.5398 23.1962 68.6484 23.4412 68.6577 23.7007L68.7774 27.0147C68.7821 27.1432 68.7622 27.2714 68.719 27.3919C68.6758 27.5125 68.61 27.623 68.5255 27.7173C68.441 27.8116 68.3393 27.8877 68.2264 27.9413C68.1134 27.9949 67.9914 28.0249 67.8672 28.0297L54.0553 28.564C54.0434 28.5645 54.0314 28.5647 54.0195 28.5647Z" fill="#2F2E41"/>
<path d="M70.205 59.1133H68.0565C67.8057 59.113 67.5652 59.0097 67.3878 58.8261C67.2104 58.6426 67.1106 58.3937 67.1104 58.1341V39.6023C67.1106 39.3426 67.2104 39.0938 67.3878 38.9102C67.5652 38.7266 67.8057 38.6233 68.0565 38.623H70.205C70.4559 38.6233 70.6963 38.7266 70.8737 38.9102C71.0511 39.0938 71.1509 39.3426 71.1512 39.6023V58.1341C71.1509 58.3937 71.0511 58.6426 70.8737 58.8261C70.6963 59.0097 70.4559 59.113 70.205 59.1133Z" fill="#2F2E41"/>
<path d="M60.6688 49.3175L58.8315 48.165C58.6172 48.0302 58.4632 47.8128 58.4035 47.5607C58.3437 47.3086 58.3831 47.0422 58.5129 46.82L67.7946 30.9722C67.9249 30.7503 68.1348 30.591 68.3785 30.5292C68.6221 30.4674 68.8795 30.5081 69.0942 30.6424L70.9314 31.7949C71.1458 31.9297 71.2998 32.1471 71.3595 32.3992C71.4192 32.6514 71.3799 32.9177 71.2501 33.1399L61.9684 48.9877C61.8381 49.2096 61.6281 49.3689 61.3845 49.4307C61.1409 49.4926 60.8835 49.4519 60.6688 49.3175Z" fill="#2F2E41"/>
<path d="M66.9419 19.2831C71.0419 19.2831 74.3656 15.8432 74.3656 11.6C74.3656 7.3568 71.0419 3.91699 66.9419 3.91699C62.8419 3.91699 59.5182 7.3568 59.5182 11.6C59.5182 15.8432 62.8419 19.2831 66.9419 19.2831Z" fill="#FFA800"/>
<path d="M62.9234 14.2232C62.6846 14.142 62.4654 14.0089 62.2805 13.8327C62.158 13.7068 62.0635 13.5548 62.0037 13.3873C61.9439 13.2197 61.9203 13.0407 61.9344 12.8626C61.9422 12.7358 61.9782 12.6125 62.0396 12.5025C62.101 12.3924 62.1862 12.2986 62.2885 12.2282C62.554 12.052 62.909 12.0515 63.2705 12.2164L63.2569 9.21701L63.548 9.21558L63.5641 12.7416L63.3398 12.5956C63.0796 12.4265 62.7082 12.3076 62.4457 12.4819C62.3808 12.5279 62.3271 12.5888 62.2887 12.6599C62.2503 12.7309 62.2282 12.8102 62.2242 12.8915C62.2144 13.0241 62.2323 13.1573 62.2767 13.2821C62.3211 13.4069 62.391 13.5204 62.4815 13.6147C62.803 13.9325 63.272 14.0319 63.8068 14.1207L63.7607 14.4182C63.4765 14.3792 63.1963 14.314 62.9234 14.2232Z" fill="#2F2E41"/>
<path d="M60.2559 9.06559L60.2178 9.36426L61.7722 9.57672L61.8103 9.27805L60.2559 9.06559Z" fill="#2F2E41"/>
<path d="M65.1625 9.73576L65.1244 10.0344L66.6789 10.2469L66.717 9.94822L65.1625 9.73576Z" fill="#2F2E41"/>
<path d="M73.1407 44.5743H60.6223C60.2943 44.5739 59.9798 44.4389 59.7478 44.1988C59.5159 43.9587 59.3854 43.6333 59.385 43.2938L62.0058 22.4947C62.0078 22.1567 62.1391 21.8334 62.3708 21.5953C62.6025 21.3572 62.9159 21.2236 63.2424 21.2239H67.685C69.4595 21.226 71.1607 21.9564 72.4155 23.255C73.6702 24.5536 74.376 26.3142 74.378 28.1507V43.2938C74.3777 43.6333 74.2472 43.9587 74.0152 44.1988C73.7833 44.4389 73.4688 44.5739 73.1407 44.5743Z" fill="#2F2E41"/>
<path d="M83.9111 36.3786C83.9884 36.5499 84.0162 36.7406 83.9913 36.9279C83.9663 37.1152 83.8895 37.291 83.7702 37.4342L82.3656 39.1167C82.2844 39.214 82.1855 39.2938 82.0744 39.3515C81.9634 39.4093 81.8425 39.4438 81.7186 39.4531C81.5946 39.4625 81.4701 39.4465 81.3522 39.4061C81.2342 39.3656 81.1252 39.3015 81.0311 39.2175L68.2942 27.8289C68.0934 27.6494 67.9287 27.4308 67.8095 27.1854C67.6904 26.94 67.6191 26.6728 67.5997 26.3989C67.5804 26.125 67.6134 25.8498 67.6968 25.5891C67.7802 25.3284 67.9124 25.0873 68.0859 24.8795C68.2594 24.6717 68.4707 24.5013 68.7078 24.378C68.945 24.2547 69.2032 24.181 69.4679 24.161C69.7325 24.1411 69.9984 24.1753 70.2503 24.2617C70.5021 24.3481 70.7351 24.485 70.9359 24.6645L83.6728 36.053C83.7736 36.1429 83.8548 36.2539 83.9111 36.3786Z" fill="#FFA800"/>
<path d="M81.0999 32.6201C81.1772 32.7913 81.205 32.9821 81.18 33.1694C81.1551 33.3566 81.0783 33.5324 80.959 33.6756L78.5599 36.5495C78.3957 36.7457 78.163 36.8665 77.9128 36.8854C77.6626 36.9043 77.4154 36.8197 77.2254 36.6502L66.7666 27.2986C66.6726 27.2145 66.5955 27.1121 66.5397 26.9972C66.4839 26.8823 66.4505 26.7572 66.4415 26.6289C66.4324 26.5007 66.4479 26.3718 66.487 26.2497C66.526 26.1277 66.588 26.0148 66.6692 25.9175L69.0682 23.0436C69.1495 22.9463 69.2484 22.8665 69.3594 22.8088C69.4705 22.7511 69.5914 22.7165 69.7153 22.7072C69.8392 22.6978 69.9637 22.7138 70.0817 22.7543C70.1996 22.7947 70.3087 22.8588 70.4027 22.9429L80.8616 32.2945C80.9624 32.3844 81.0436 32.4953 81.0999 32.6201Z" fill="#2F2E41"/>
<path d="M67.0807 7.04317C66.0883 6.19324 64.7617 6.9971 63.6395 6.88301C62.5657 6.77385 61.7015 5.79594 61.4661 4.74361C61.1913 3.5159 61.7869 2.26878 62.684 1.4823C63.6665 0.620924 64.9857 0.353249 66.2428 0.484323C67.6837 0.634549 69.0111 1.3022 70.2062 2.11784C71.3593 2.88005 72.4233 3.77778 73.377 4.79313C74.2316 5.73336 74.9617 6.85977 75.2117 8.14268C75.439 9.30858 75.3057 10.6081 74.6556 11.6124C74.3105 12.1273 73.8431 12.5416 73.2983 12.8151C72.7306 13.1176 72.1232 13.3378 71.5741 13.678C70.7438 14.1924 69.9469 15.2407 70.2296 16.3097C70.2902 16.5433 70.4055 16.7579 70.5651 16.9345C70.7569 17.1466 71.0905 16.8548 70.8982 16.6421C70.5604 16.2686 70.5641 15.7615 70.7321 15.3043C70.9323 14.7889 71.2957 14.3592 71.7628 14.0855C72.3377 13.7303 72.9753 13.5054 73.5652 13.1805C74.1301 12.8831 74.6171 12.449 74.985 11.9149C75.679 10.8756 75.8678 9.53713 75.6834 8.30594C75.484 6.97362 74.7985 5.77284 73.9486 4.77201C73.0235 3.68282 71.8951 2.76764 70.7443 1.94818C69.5096 1.06888 68.1498 0.331704 66.6555 0.0847927C65.3601 -0.129242 63.9636 0.0456728 62.8481 0.795947C61.8068 1.49628 61.0202 2.68124 60.9639 3.98914C60.9459 4.58408 61.0815 5.17322 61.3566 5.69593C61.6317 6.21864 62.0364 6.65604 62.5291 6.96313C63.0344 7.26271 63.6178 7.39055 64.197 7.32861C64.8165 7.27533 65.4337 7.06657 66.0589 7.10886C66.3416 7.12105 66.6129 7.22831 66.8315 7.41438C67.0483 7.60008 67.2958 7.22734 67.0807 7.04317Z" fill="#2F2E41"/>
<path d="M58.3515 47.0876C58.3541 47.0706 58.3572 47.0537 58.3608 47.0367C58.3867 46.9109 58.4364 46.7916 58.5072 46.6858C58.5779 46.5801 58.6682 46.4898 58.7728 46.4204L60.5783 45.2152C60.7892 45.0748 61.0454 45.0266 61.2906 45.0814C61.5358 45.1361 61.75 45.2893 61.8862 45.5073L67.4557 54.4437C67.5916 54.662 67.6383 54.9272 67.5854 55.181C67.5324 55.4349 67.3843 55.6566 67.1734 55.7974L65.3679 57.0025C65.157 57.143 64.9008 57.1911 64.6556 57.1364C64.4104 57.0816 64.1962 56.9284 64.0599 56.7104L58.4905 47.7741C58.3633 47.5711 58.3137 47.3264 58.3515 47.0876Z" fill="#2F2E41"/>
</g>
<defs>
<clipPath id="clip0_547_36">
<rect width="84" height="68" fill="white"/>
</clipPath>
</defs>
</svg>
